M48
; DRILL file {KiCad 7.0.9} date Mon Jan 29 17:54:39 2024
; FORMAT={-:-/ absolute / inch / decimal}
; #@! TF.CreationDate,2024-01-29T17:54:39+11:00
; #@! TF.GenerationSoftware,Kicad,Pcbnew,7.0.9
; #@! TF.FileFunction,Plated,1,2,PTH
FMAT,2
INCH
; #@! TA.AperFunction,Plated,PTH,ViaDrill
T1C0.0157
; #@! TA.AperFunction,Plated,PTH,ComponentDrill
T2C0.0394
; #@! TA.AperFunction,Plated,PTH,ComponentDrill
T3C0.1260
%
G90
G05
T1
X2.2713Y-2.3524
X2.3382Y-2.5878
X2.487Y-2.2126
X2.5236Y-2.1055
X2.524Y-2.0374
X2.5469Y-2.1598
X2.548Y-2.3654
X2.5484Y-2.2055
X2.5492Y-2.4453
X2.5803Y-2.1193
X2.6268Y-1.9776
X2.6299Y-2.2933
X2.698Y-1.9673
X2.7291Y-2.0366
X2.7571Y-2.2961
X2.7657Y-2.1059
X2.8067Y-2.0626
X2.811Y-2.4091
X2.8827Y-2.1122
X2.963Y-1.9996
T2
X2.526Y-1.7283
X2.5272Y-2.6472
X2.6244Y-1.7283
X2.6256Y-2.6472
X2.7228Y-1.7283
X2.724Y-2.6472
X2.8213Y-1.7283
X2.8224Y-2.6472
X3.0988Y-1.9075
X3.0988Y-2.0075
X3.0988Y-2.1075
X3.0988Y-2.2075
X3.0988Y-2.3075
X3.0988Y-2.4075
X3.0988Y-2.5075
X3.1988Y-1.9075
X3.1988Y-2.0075
X3.1988Y-2.1075
X3.1988Y-2.2075
X3.1988Y-2.3075
X3.1988Y-2.4075
X3.1988Y-2.5075
T3
X2.1998Y-1.6929
X2.2047Y-2.7165
X3.1398Y-1.6929
X3.14Y-2.7165
T0
M30
