%TF.GenerationSoftware,KiCad,Pcbnew,7.0.9*%
%TF.CreationDate,2024-01-29T17:54:31+11:00*%
%TF.ProjectId,BMI088_IMU_PCB,424d4930-3838-45f4-994d-555f5043422e,rev?*%
%TF.SameCoordinates,Original*%
%TF.FileFunction,Copper,L1,Top*%
%TF.FilePolarity,Positive*%
%FSLAX46Y46*%
G04 Gerber Fmt 4.6, Leading zero omitted, Abs format (unit mm)*
G04 Created by KiCad (PCBNEW 7.0.9) date 2024-01-29 17:54:31*
%MOMM*%
%LPD*%
G01*
G04 APERTURE LIST*
G04 Aperture macros list*
%AMRoundRect*
0 Rectangle with rounded corners*
0 $1 Rounding radius*
0 $2 $3 $4 $5 $6 $7 $8 $9 X,Y pos of 4 corners*
0 Add a 4 corners polygon primitive as box body*
4,1,4,$2,$3,$4,$5,$6,$7,$8,$9,$2,$3,0*
0 Add four circle primitives for the rounded corners*
1,1,$1+$1,$2,$3*
1,1,$1+$1,$4,$5*
1,1,$1+$1,$6,$7*
1,1,$1+$1,$8,$9*
0 Add four rect primitives between the rounded corners*
20,1,$1+$1,$2,$3,$4,$5,0*
20,1,$1+$1,$4,$5,$6,$7,0*
20,1,$1+$1,$6,$7,$8,$9,0*
20,1,$1+$1,$8,$9,$2,$3,0*%
G04 Aperture macros list end*
%TA.AperFunction,ComponentPad*%
%ADD10R,1.508000X1.508000*%
%TD*%
%TA.AperFunction,ComponentPad*%
%ADD11C,1.508000*%
%TD*%
%TA.AperFunction,SMDPad,CuDef*%
%ADD12R,0.350000X0.590000*%
%TD*%
%TA.AperFunction,SMDPad,CuDef*%
%ADD13R,0.590000X0.350000*%
%TD*%
%TA.AperFunction,ComponentPad*%
%ADD14C,6.400000*%
%TD*%
%TA.AperFunction,SMDPad,CuDef*%
%ADD15R,1.000000X1.500000*%
%TD*%
%TA.AperFunction,SMDPad,CuDef*%
%ADD16RoundRect,0.237500X-0.300000X-0.237500X0.300000X-0.237500X0.300000X0.237500X-0.300000X0.237500X0*%
%TD*%
%TA.AperFunction,SMDPad,CuDef*%
%ADD17RoundRect,0.237500X0.250000X0.237500X-0.250000X0.237500X-0.250000X-0.237500X0.250000X-0.237500X0*%
%TD*%
%TA.AperFunction,SMDPad,CuDef*%
%ADD18RoundRect,0.237500X-0.250000X-0.237500X0.250000X-0.237500X0.250000X0.237500X-0.250000X0.237500X0*%
%TD*%
%TA.AperFunction,ComponentPad*%
%ADD19R,1.700000X1.700000*%
%TD*%
%TA.AperFunction,ComponentPad*%
%ADD20O,1.700000X1.700000*%
%TD*%
%TA.AperFunction,ViaPad*%
%ADD21C,0.800000*%
%TD*%
%TA.AperFunction,Conductor*%
%ADD22C,0.250000*%
%TD*%
G04 APERTURE END LIST*
D10*
%TO.P,P1,1,1*%
%TO.N,VCC*%
X71690000Y-67240000D03*
D11*
%TO.P,P1,2,2*%
%TO.N,/SDA{slash}MOSI*%
X69190000Y-67240000D03*
%TO.P,P1,3,3*%
%TO.N,/SCL{slash}SCLK*%
X66690000Y-67240000D03*
%TO.P,P1,4,4*%
%TO.N,GND*%
X64190000Y-67240000D03*
%TD*%
D12*
%TO.P,U1,1,INT2*%
%TO.N,/INT2_A*%
X69300000Y-57190000D03*
%TO.P,U1,2,NC*%
%TO.N,GND*%
X68800000Y-57190000D03*
%TO.P,U1,3,VDD*%
%TO.N,VCC*%
X68300000Y-57190000D03*
%TO.P,U1,4,GNDA*%
%TO.N,GND*%
X67800000Y-57190000D03*
%TO.P,U1,5,CSB2*%
%TO.N,/CS_GYRO*%
X67300000Y-57190000D03*
%TO.P,U1,6,GNDIO*%
%TO.N,GND*%
X66800000Y-57190000D03*
%TO.P,U1,7,PS*%
%TO.N,/PS*%
X66300000Y-57190000D03*
D13*
%TO.P,U1,8,SCL/SCK*%
%TO.N,/SCL{slash}SCLK*%
X65885000Y-56025000D03*
D12*
%TO.P,U1,9,SDA/SDI*%
%TO.N,/SDA{slash}MOSI*%
X66300000Y-54860000D03*
%TO.P,U1,10,SDO2*%
%TO.N,/SDIO{slash}MISO*%
X66800000Y-54860000D03*
%TO.P,U1,11,VDDIO*%
%TO.N,VDDIO*%
X67300000Y-54860000D03*
%TO.P,U1,12,INT3*%
%TO.N,/INT3_G*%
X67800000Y-54860000D03*
%TO.P,U1,13,INT4*%
%TO.N,/INT4_G*%
X68300000Y-54860000D03*
%TO.P,U1,14,CSB1*%
%TO.N,/CS_ACCEL*%
X68800000Y-54860000D03*
%TO.P,U1,15,SDO1*%
%TO.N,/SDIO{slash}MISO*%
X69300000Y-54860000D03*
D13*
%TO.P,U1,16,INT1*%
%TO.N,/INT1_A*%
X69715000Y-56025000D03*
%TD*%
D14*
%TO.P,TH4,4*%
%TO.N,N/C*%
X79756000Y-69000000D03*
%TD*%
%TO.P,TH1,1*%
%TO.N,N/C*%
X55874000Y-43000000D03*
%TD*%
D15*
%TO.P,JP4,1,A*%
%TO.N,/PS*%
X53870000Y-63930000D03*
%TO.P,JP4,2,B*%
%TO.N,GND*%
X55170000Y-63930000D03*
%TD*%
D14*
%TO.P,TH3,3*%
%TO.N,N/C*%
X56000000Y-69000000D03*
%TD*%
D16*
%TO.P,C2,1*%
%TO.N,VDDIO*%
X66937500Y-52575000D03*
%TO.P,C2,2*%
%TO.N,GND*%
X68662500Y-52575000D03*
%TD*%
D17*
%TO.P,R1,1*%
%TO.N,/SDIO{slash}MISO*%
X59357500Y-64405000D03*
%TO.P,R1,2*%
%TO.N,GND*%
X57532500Y-64405000D03*
%TD*%
D15*
%TO.P,JP3,1,A*%
%TO.N,VDDIO*%
X55100000Y-57000000D03*
%TO.P,JP3,2,B*%
%TO.N,/SDIO{slash}MISO*%
X53800000Y-57000000D03*
%TD*%
%TO.P,JP1,1,A*%
%TO.N,VCC*%
X74270000Y-62350000D03*
%TO.P,JP1,2,B*%
%TO.N,VDDIO*%
X72970000Y-62350000D03*
%TD*%
D10*
%TO.P,P2,1,1*%
%TO.N,VCC*%
X64160000Y-43900000D03*
D11*
%TO.P,P2,2,2*%
%TO.N,/SDA{slash}MOSI*%
X66660000Y-43900000D03*
%TO.P,P2,3,3*%
%TO.N,/SCL{slash}SCLK*%
X69160000Y-43900000D03*
%TO.P,P2,4,4*%
%TO.N,GND*%
X71660000Y-43900000D03*
%TD*%
D18*
%TO.P,R2,1*%
%TO.N,VDDIO*%
X57637500Y-57550000D03*
%TO.P,R2,2*%
%TO.N,/PS*%
X59462500Y-57550000D03*
%TD*%
D19*
%TO.P,J1,1,Pin_1*%
%TO.N,/CS_ACCEL*%
X81250000Y-48450000D03*
D20*
%TO.P,J1,2,Pin_2*%
%TO.N,/PS*%
X78710000Y-48450000D03*
%TO.P,J1,3,Pin_3*%
%TO.N,/CS_GYRO*%
X81250000Y-50990000D03*
%TO.P,J1,4,Pin_4*%
%TO.N,/INT1_A*%
X78710000Y-50990000D03*
%TO.P,J1,5,Pin_5*%
%TO.N,/INT3_G*%
X81250000Y-53530000D03*
%TO.P,J1,6,Pin_6*%
%TO.N,/INT2_A*%
X78710000Y-53530000D03*
%TO.P,J1,7,Pin_7*%
%TO.N,/INT4_G*%
X81250000Y-56070000D03*
%TO.P,J1,8,Pin_8*%
%TO.N,/SDIO{slash}MISO*%
X78710000Y-56070000D03*
%TO.P,J1,9,Pin_9*%
%TO.N,/SCL{slash}SCLK*%
X81250000Y-58610000D03*
%TO.P,J1,10,Pin_10*%
%TO.N,/SDA{slash}MOSI*%
X78710000Y-58610000D03*
%TO.P,J1,11,Pin_11*%
%TO.N,GND*%
X81250000Y-61150000D03*
%TO.P,J1,12,Pin_12*%
%TO.N,VDDIO*%
X78710000Y-61150000D03*
%TO.P,J1,13,Pin_13*%
%TO.N,GND*%
X81250000Y-63690000D03*
%TO.P,J1,14,Pin_14*%
%TO.N,VCC*%
X78710000Y-63690000D03*
%TD*%
D16*
%TO.P,C1,1*%
%TO.N,VCC*%
X67012500Y-59450000D03*
%TO.P,C1,2*%
%TO.N,GND*%
X68737500Y-59450000D03*
%TD*%
D14*
%TO.P,TH2,2*%
%TO.N,N/C*%
X79750000Y-43000000D03*
%TD*%
D15*
%TO.P,JP2,1,A*%
%TO.N,/INT2_A*%
X75200000Y-49110000D03*
%TO.P,JP2,2,B*%
%TO.N,/INT4_G*%
X73900000Y-49110000D03*
%TD*%
D21*
%TO.N,GND*%
X70030000Y-58320000D03*
X66720000Y-50230000D03*
X69320000Y-51730000D03*
%TO.N,VDDIO*%
X71400000Y-61190000D03*
X57690000Y-59750000D03*
%TO.N,/INT4_G*%
X75260000Y-50790000D03*
X70250000Y-53490000D03*
X68530000Y-49970000D03*
%TO.N,/SCL{slash}SCLK*%
X64720000Y-60080000D03*
X64750000Y-62110000D03*
X64110000Y-51750000D03*
X64100000Y-53480000D03*
X64730000Y-56020000D03*
%TO.N,/SDA{slash}MOSI*%
X64690000Y-54860000D03*
%TO.N,/SDIO{slash}MISO*%
X73220000Y-53650000D03*
X59390000Y-65730000D03*
X65540000Y-53830000D03*
%TO.N,/PS*%
X63170000Y-56200000D03*
%TO.N,/CS_GYRO*%
X66800000Y-58250000D03*
%TO.N,/CS_ACCEL*%
X71290000Y-52390000D03*
%TD*%
D22*
%TO.N,GND*%
X69320000Y-51730000D02*
X69320000Y-51917500D01*
X74700897Y-69070000D02*
X78455897Y-65315000D01*
X68800000Y-56645000D02*
X68725000Y-56570000D01*
X66720000Y-50230000D02*
X66630000Y-50230000D01*
X68800000Y-58290000D02*
X68800000Y-57190000D01*
X67800000Y-56590000D02*
X67800000Y-57190000D01*
X79625000Y-65315000D02*
X81250000Y-63690000D01*
X66875000Y-56570000D02*
X66800000Y-56645000D01*
X58332500Y-63605000D02*
X60555000Y-63605000D01*
X69960000Y-58290000D02*
X70030000Y-58320000D01*
X68737500Y-59450000D02*
X69262500Y-59975000D01*
X67820000Y-56570000D02*
X67800000Y-56590000D01*
X55645000Y-64405000D02*
X55170000Y-63930000D01*
X69262500Y-59975000D02*
X80075000Y-59975000D01*
X66720000Y-50230000D02*
X66700000Y-50210000D01*
X70020000Y-58290000D02*
X69990000Y-58290000D01*
X66700000Y-48860000D02*
X71610000Y-43950000D01*
X70030000Y-58320000D02*
X70020000Y-58290000D01*
X68737500Y-59450000D02*
X68800000Y-59387500D01*
X69320000Y-51917500D02*
X68662500Y-52575000D01*
X67780000Y-56570000D02*
X66875000Y-56570000D01*
X57532500Y-64405000D02*
X55645000Y-64405000D01*
X80075000Y-59975000D02*
X81250000Y-61150000D01*
X67800000Y-56590000D02*
X67780000Y-56570000D01*
X57532500Y-64405000D02*
X58332500Y-63605000D01*
X60555000Y-63605000D02*
X66020000Y-69070000D01*
X69170000Y-51880000D02*
X69120000Y-51880000D01*
X69320000Y-51730000D02*
X69170000Y-51880000D01*
X78455897Y-65315000D02*
X79625000Y-65315000D01*
X66800000Y-56645000D02*
X66800000Y-57190000D01*
X71610000Y-43950000D02*
X71610000Y-43920000D01*
X68800000Y-58290000D02*
X69960000Y-58290000D01*
X66700000Y-50210000D02*
X66700000Y-48860000D01*
X68800000Y-57190000D02*
X68800000Y-56645000D01*
X66020000Y-69070000D02*
X74700897Y-69070000D01*
X68725000Y-56570000D02*
X67820000Y-56570000D01*
X68800000Y-59387500D02*
X68800000Y-58290000D01*
%TO.N,VCC*%
X74270000Y-62350000D02*
X74270000Y-63680000D01*
X71252500Y-63690000D02*
X67012500Y-59450000D01*
X74270000Y-63680000D02*
X74280000Y-63690000D01*
X68300000Y-57190000D02*
X68300000Y-58162500D01*
X72840000Y-67240000D02*
X76390000Y-63690000D01*
X68300000Y-58162500D02*
X67012500Y-59450000D01*
X78710000Y-63690000D02*
X74280000Y-63690000D01*
X76390000Y-63690000D02*
X78710000Y-63690000D01*
X71460000Y-67240000D02*
X72840000Y-67240000D01*
X74280000Y-63690000D02*
X71252500Y-63690000D01*
X71450000Y-67250000D02*
X71460000Y-67240000D01*
%TO.N,VDDIO*%
X57637500Y-59697500D02*
X57690000Y-59750000D01*
X78710000Y-61140000D02*
X78710000Y-61150000D01*
X72970000Y-62350000D02*
X72970000Y-61180000D01*
X71400000Y-61190000D02*
X71400000Y-61080000D01*
X62612500Y-52575000D02*
X57637500Y-57550000D01*
X67300000Y-52937500D02*
X66937500Y-52575000D01*
X71400000Y-61080000D02*
X71420000Y-61100000D01*
X72940000Y-61150000D02*
X71470000Y-61150000D01*
X66937500Y-52575000D02*
X62612500Y-52575000D01*
X71470000Y-61150000D02*
X71510000Y-61190000D01*
X55100000Y-57000000D02*
X57087500Y-57000000D01*
X67300000Y-54860000D02*
X67300000Y-52937500D01*
X78710000Y-61140000D02*
X78570000Y-61000000D01*
X57087500Y-57000000D02*
X57637500Y-57550000D01*
X72970000Y-61180000D02*
X72940000Y-61150000D01*
X57637500Y-57550000D02*
X57637500Y-59697500D01*
X78710000Y-61150000D02*
X72940000Y-61150000D01*
X71510000Y-61190000D02*
X71400000Y-61190000D01*
%TO.N,/INT2_A*%
X75440000Y-48870000D02*
X75440000Y-48860000D01*
X75050000Y-57190000D02*
X78710000Y-53530000D01*
X82276396Y-46610000D02*
X82890000Y-47223604D01*
X69300000Y-57190000D02*
X75050000Y-57190000D01*
X79885000Y-54705000D02*
X78710000Y-53530000D01*
X75200000Y-49110000D02*
X75440000Y-48870000D01*
X82890000Y-47223604D02*
X82890000Y-53551701D01*
X81736701Y-54705000D02*
X79885000Y-54705000D01*
X76580000Y-46610000D02*
X82276396Y-46610000D01*
X82890000Y-53551701D02*
X81736701Y-54705000D01*
X75200000Y-47990000D02*
X76580000Y-46610000D01*
X75200000Y-49110000D02*
X75200000Y-47990000D01*
%TO.N,/INT4_G*%
X73720000Y-49970000D02*
X73900000Y-50150000D01*
X68300000Y-54860000D02*
X68300000Y-54103604D01*
X68300000Y-54103604D02*
X68913604Y-53490000D01*
X68530000Y-49970000D02*
X73720000Y-49970000D01*
X73900000Y-50150000D02*
X74540000Y-50790000D01*
X70250000Y-53490000D02*
X70150000Y-53490000D01*
X75260000Y-50790000D02*
X74540000Y-50790000D01*
X73900000Y-49110000D02*
X73900000Y-50150000D01*
X68530000Y-49970000D02*
X68490000Y-49970000D01*
X68913604Y-53490000D02*
X70250000Y-53490000D01*
%TO.N,/SCL{slash}SCLK*%
X68010000Y-68560000D02*
X73600000Y-68560000D01*
X82425000Y-59785000D02*
X81250000Y-58610000D01*
X82425000Y-61636701D02*
X82425000Y-59785000D01*
X63965000Y-53615000D02*
X64100000Y-53480000D01*
X73600000Y-68560000D02*
X77295000Y-64865000D01*
X64070000Y-51710000D02*
X64110000Y-51750000D01*
X79196701Y-64865000D02*
X79919302Y-64142399D01*
X64070000Y-48900000D02*
X64070000Y-51710000D01*
X63965000Y-55255000D02*
X63965000Y-53615000D01*
X64720000Y-60080000D02*
X64720000Y-62080000D01*
X64730000Y-56020000D02*
X63965000Y-55255000D01*
X69070000Y-43900000D02*
X64070000Y-48900000D01*
X79919302Y-64142399D02*
X79919302Y-63168997D01*
X69110000Y-43920000D02*
X69090000Y-43900000D01*
X81736701Y-62325000D02*
X82425000Y-61636701D01*
X66690000Y-67240000D02*
X68010000Y-68560000D01*
X77295000Y-64865000D02*
X79196701Y-64865000D01*
X80763299Y-62325000D02*
X81736701Y-62325000D01*
X64110000Y-51750000D02*
X64070000Y-51790000D01*
X69090000Y-43900000D02*
X69070000Y-43900000D01*
X64735000Y-56025000D02*
X64730000Y-56020000D01*
X64720000Y-62080000D02*
X64750000Y-62110000D01*
X64070000Y-51790000D02*
X64070000Y-51950000D01*
X79919302Y-63168997D02*
X80763299Y-62325000D01*
X65885000Y-56025000D02*
X64735000Y-56025000D01*
%TO.N,/SDA{slash}MOSI*%
X64740000Y-54860000D02*
X64690000Y-54860000D01*
X64730000Y-54850000D02*
X64740000Y-54860000D01*
X64740000Y-54860000D02*
X66300000Y-54860000D01*
X64690000Y-54860000D02*
X64690000Y-54810000D01*
X64690000Y-54810000D02*
X64740000Y-54860000D01*
%TO.N,/SDIO{slash}MISO*%
X66875000Y-55480000D02*
X66800000Y-55405000D01*
X66800000Y-54240000D02*
X66370000Y-53810000D01*
X53415000Y-65210000D02*
X58552500Y-65210000D01*
X65540000Y-53830000D02*
X65640000Y-53810000D01*
X53045000Y-64840000D02*
X53415000Y-65210000D01*
X69225000Y-55480000D02*
X66875000Y-55480000D01*
X58552500Y-65210000D02*
X59357500Y-64405000D01*
X53800000Y-57000000D02*
X53045000Y-57755000D01*
X65680000Y-53810000D02*
X65540000Y-53830000D01*
X69300000Y-55405000D02*
X69225000Y-55480000D01*
X69300000Y-54860000D02*
X72010000Y-54860000D01*
X69300000Y-54860000D02*
X69300000Y-55405000D01*
X53045000Y-57755000D02*
X53045000Y-64840000D01*
X59390000Y-65730000D02*
X59260000Y-65730000D01*
X66800000Y-54860000D02*
X66800000Y-54240000D01*
X66370000Y-53810000D02*
X65680000Y-53810000D01*
X59260000Y-65730000D02*
X59350000Y-65640000D01*
X59357500Y-65632500D02*
X59390000Y-65600000D01*
X59390000Y-65600000D02*
X59390000Y-65730000D01*
X59357500Y-64405000D02*
X59357500Y-65632500D01*
X66800000Y-55405000D02*
X66800000Y-54860000D01*
X72010000Y-54860000D02*
X73220000Y-53650000D01*
X65640000Y-53810000D02*
X65660000Y-53810000D01*
%TO.N,/PS*%
X57990305Y-60475000D02*
X59462500Y-59002805D01*
X63180000Y-57190000D02*
X63720000Y-57190000D01*
X56325000Y-60475000D02*
X57990305Y-60475000D01*
X63170000Y-56270000D02*
X63170000Y-56200000D01*
X63180000Y-57190000D02*
X63180000Y-56260000D01*
X63720000Y-57190000D02*
X66300000Y-57190000D01*
X53870000Y-63930000D02*
X53870000Y-62930000D01*
X53870000Y-62930000D02*
X56325000Y-60475000D01*
X59462500Y-59002805D02*
X59462500Y-57550000D01*
X59462500Y-57550000D02*
X59822500Y-57190000D01*
X63170000Y-56200000D02*
X63240000Y-56200000D01*
X59822500Y-57190000D02*
X63180000Y-57190000D01*
X63240000Y-56200000D02*
X63200000Y-56240000D01*
X63180000Y-56260000D02*
X63170000Y-56270000D01*
%TO.N,/CS_GYRO*%
X66800000Y-58250000D02*
X66720000Y-58250000D01*
X67300000Y-57670000D02*
X66800000Y-58170000D01*
X66800000Y-58170000D02*
X66800000Y-58250000D01*
X67300000Y-57190000D02*
X67300000Y-57670000D01*
X66720000Y-58250000D02*
X66790000Y-58180000D01*
%TO.N,/INT1_A*%
X73675000Y-56025000D02*
X78710000Y-50990000D01*
X69715000Y-56025000D02*
X73675000Y-56025000D01*
%TO.N,/CS_ACCEL*%
X71330000Y-54240000D02*
X71330000Y-52410000D01*
X71290000Y-52390000D02*
X71290000Y-52450000D01*
X68800000Y-54240000D02*
X71330000Y-54240000D01*
X71330000Y-52410000D02*
X71350000Y-52390000D01*
X68800000Y-54860000D02*
X68800000Y-54240000D01*
X71290000Y-52450000D02*
X71390000Y-52350000D01*
X71350000Y-52390000D02*
X71290000Y-52390000D01*
%TO.N,/INT3_G*%
X82440000Y-47410000D02*
X82440000Y-52340000D01*
X76340000Y-51560000D02*
X77070000Y-50830000D01*
X69620305Y-51005000D02*
X70175305Y-51560000D01*
X77980000Y-47060000D02*
X82090000Y-47060000D01*
X68892924Y-51005000D02*
X69620305Y-51005000D01*
X67800000Y-54860000D02*
X67800000Y-52097924D01*
X82090000Y-47060000D02*
X82440000Y-47410000D01*
X82440000Y-52340000D02*
X81250000Y-53530000D01*
X77070000Y-50830000D02*
X77070000Y-47970000D01*
X67800000Y-52097924D02*
X68892924Y-51005000D01*
X77070000Y-47970000D02*
X77980000Y-47060000D01*
X70175305Y-51560000D02*
X76340000Y-51560000D01*
%TD*%
M02*
